<svg width="373" height="373" viewBox="0 0 373 373" fill="none" xmlns="http://www.w3.org/2000/svg">
<mask id="path-1-inside-1_74_142" fill="white">
<path d="M186.5 0C289.502 0 373 83.4989 373 186.5C373 289.501 289.502 373 186.5 373C83.4994 373 0.000488281 289.501 0.000488281 186.5C0.000488281 83.4989 83.4994 0 186.5 0ZM187 15C92.0075 15 15.0005 92.007 15.0005 187C15.0005 281.993 92.0075 359 187 359C281.993 359 359 281.993 359 187C359 92.007 281.993 15 187 15Z"/>
</mask>
<path d="M186.5 0C289.502 0 373 83.4989 373 186.5C373 289.501 289.502 373 186.5 373C83.4994 373 0.000488281 289.501 0.000488281 186.5C0.000488281 83.4989 83.4994 0 186.5 0ZM187 15C92.0075 15 15.0005 92.007 15.0005 187C15.0005 281.993 92.0075 359 187 359C281.993 359 359 281.993 359 187C359 92.007 281.993 15 187 15Z" fill="black"/>
<path d="M186.5 0V1C288.949 1 372 84.0512 372 186.5H373H374C374 82.9466 290.054 -1 186.5 -1V0ZM373 186.5H372C372 288.949 288.949 372 186.5 372V373V374C290.054 374 374 290.053 374 186.5H373ZM186.5 373V372C84.0517 372 1.00049 288.949 1.00049 186.5H0.000488281H-0.999512C-0.999512 290.053 82.9471 374 186.5 374V373ZM0.000488281 186.5H1.00049C1.00049 84.0512 84.0517 1 186.5 1V0V-1C82.9471 -1 -0.999512 82.9466 -0.999512 186.5H0.000488281ZM187 15V14C91.4552 14 14.0005 91.4547 14.0005 187H15.0005H16.0005C16.0005 92.5593 92.5598 16 187 16V15ZM15.0005 187H14.0005C14.0005 282.545 91.4552 360 187 360V359V358C92.5598 358 16.0005 281.441 16.0005 187H15.0005ZM187 359V360C282.546 360 360 282.545 360 187H359H358C358 281.441 281.441 358 187 358V359ZM359 187H360C360 91.4547 282.546 14 187 14V15V16C281.441 16 358 92.5593 358 187H359Z" fill="#747474" mask="url(#path-1-inside-1_74_142)"/>
</svg>
