<svg width="325" height="375" viewBox="0 0 325 375" fill="none" xmlns="http://www.w3.org/2000/svg">
<mask id="mask0_22_446" style="mask-type:alpha" maskUnits="userSpaceOnUse" x="1" y="0" width="324" height="374">
<path d="M323.631 186.683C324.11 289.477 252.361 373.019 163.523 373.436C74.6841 373.853 2.16133 290.987 1.68261 188.193C1.20391 85.3997 72.9518 1.85712 161.79 1.44008C250.629 1.02321 323.153 83.8888 323.631 186.683Z" fill="#FF0000" stroke="white"/>
</mask>
<g mask="url(#mask0_22_446)">
<mask id="path-2-inside-1_22_446" fill="white">
<path d="M162.407 222.687L-19.6717 345.335L-21.1566 26.4639L162.056 147.397L344.133 24.7498L345.618 343.621L162.407 222.687Z"/>
</mask>
<path d="M162.407 222.687L162.958 221.852L162.401 221.485L161.848 221.857L162.407 222.687ZM-19.6717 345.335L-20.6716 345.34L-20.6629 347.209L-19.113 346.165L-19.6717 345.335ZM-21.1566 26.4639L-20.6057 25.6293L-22.1653 24.5998L-22.1566 26.4686L-21.1566 26.4639ZM162.056 147.397L161.505 148.232L162.062 148.599L162.615 148.227L162.056 147.397ZM344.133 24.7498L345.133 24.7451L345.125 22.8763L343.575 23.9204L344.133 24.7498ZM345.618 343.621L345.067 344.456L346.627 345.485L346.618 343.617L345.618 343.621ZM162.407 222.687L161.848 221.857L-20.2303 344.506L-19.6717 345.335L-19.113 346.165L162.965 223.516L162.407 222.687ZM-19.6717 345.335L-18.6717 345.331L-20.1566 26.4592L-21.1566 26.4639L-22.1566 26.4686L-20.6716 345.34L-19.6717 345.335ZM-21.1566 26.4639L-21.7075 27.2985L161.505 148.232L162.056 147.397L162.607 146.563L-20.6057 25.6293L-21.1566 26.4639ZM162.056 147.397L162.615 148.227L344.692 25.5791L344.133 24.7498L343.575 23.9204L161.497 146.568L162.056 147.397ZM344.133 24.7498L343.133 24.7544L344.618 343.626L345.618 343.621L346.618 343.617L345.133 24.7451L344.133 24.7498ZM345.618 343.621L346.169 342.787L162.958 221.852L162.407 222.687L161.856 223.521L345.067 344.456L345.618 343.621Z" fill="white" mask="url(#path-2-inside-1_22_446)"/>
</g>
</svg>
