<svg width="325" height="375" viewBox="0 0 325 375" fill="none" xmlns="http://www.w3.org/2000/svg">
<mask id="mask0_22_446" style="mask-type:alpha" maskUnits="userSpaceOnUse" x="1" y="0" width="324" height="374">
<ellipse cx="186.5" cy="161.476" rx="186.5" ry="161.476" transform="matrix(0.00465688 0.999989 -0.999989 0.00469242 323.263 0.182495)" fill="#FF0000"/>
</mask>
<g mask="url(#mask0_22_446)">
<mask id="path-2-inside-1_22_446" fill="white">
<path d="M162.407 222.687L-19.6717 345.336L-21.1566 26.464L162.056 147.398L344.133 24.7499L345.618 343.621L162.407 222.687Z"/>
</mask>
<path d="M162.407 222.687L162.958 221.852L162.401 221.485L161.848 221.857L162.407 222.687ZM-19.6717 345.336L-20.6716 345.34L-20.6629 347.209L-19.113 346.165L-19.6717 345.336ZM-21.1566 26.464L-20.6057 25.6294L-22.1653 24.6L-22.1566 26.4687L-21.1566 26.464ZM162.056 147.398L161.505 148.232L162.062 148.6L162.615 148.227L162.056 147.398ZM344.133 24.7499L345.133 24.7452L345.125 22.8765L343.575 23.9205L344.133 24.7499ZM345.618 343.621L345.067 344.456L346.627 345.485L346.618 343.617L345.618 343.621ZM162.407 222.687L161.848 221.857L-20.2303 344.506L-19.6717 345.336L-19.113 346.165L162.965 223.516L162.407 222.687ZM-19.6717 345.336L-18.6717 345.331L-20.1566 26.4593L-21.1566 26.464L-22.1566 26.4687L-20.6716 345.34L-19.6717 345.336ZM-21.1566 26.464L-21.7075 27.2986L161.505 148.232L162.056 147.398L162.607 146.563L-20.6057 25.6294L-21.1566 26.464ZM162.056 147.398L162.615 148.227L344.692 25.5793L344.133 24.7499L343.575 23.9205L161.497 146.568L162.056 147.398ZM344.133 24.7499L343.133 24.7546L344.618 343.626L345.618 343.621L346.618 343.617L345.133 24.7452L344.133 24.7499ZM345.618 343.621L346.169 342.787L162.958 221.852L162.407 222.687L161.856 223.521L345.067 344.456L345.618 343.621Z" fill="black" mask="url(#path-2-inside-1_22_446)"/>
</g>
</svg>
