<svg width="548" height="548" viewBox="0 0 548 548" fill="none" xmlns="http://www.w3.org/2000/svg">
<mask id="mask0_74_128" style="mask-type:alpha" maskUnits="userSpaceOnUse" x="75" y="75" width="398" height="398">
<path d="M379.255 106.23C471.714 164.515 499.399 286.745 441.092 379.238C382.785 471.732 260.566 499.463 168.107 441.179C75.6486 382.894 47.9626 260.663 106.27 168.17C164.577 75.676 286.797 47.945 379.255 106.23Z" fill="#D9D9D9" stroke="black"/>
</mask>
<g mask="url(#mask0_74_128)">
<path d="M437.782 485.095L118.975 491.729L158.017 420.734C158.284 420.941 158.55 421.149 158.818 421.355L120.687 490.693L436.03 484.132L394.112 414.894C394.368 414.673 394.624 414.453 394.88 414.231L437.782 485.095ZM392.099 130.395C391.839 130.177 391.578 129.959 391.316 129.742L427.294 64.3201L111.951 70.8811L149.662 133.167C149.407 133.39 149.151 133.612 148.898 133.837L110.199 69.9174L429.006 63.2842L392.099 130.395Z" fill="black"/>
</g>
<path d="M401.741 425.791C366.756 454.633 321.687 471.998 272.5 471.999C226.749 471.999 184.561 456.975 150.737 431.667L151.221 430.782C184.896 456.016 226.919 470.999 272.5 470.999C321.505 470.998 366.398 453.679 401.224 424.921L401.741 425.791ZM272.5 74.9985C319.543 74.9986 362.82 90.8806 397.11 117.498L396.625 118.387C362.486 91.8429 319.374 75.9986 272.5 75.9985C223.368 75.9985 178.369 93.4059 143.505 122.296L142.988 121.427C178.01 92.4516 223.185 74.9985 272.5 74.9985Z" fill="black"/>
<mask id="path-4-inside-1_74_128" fill="white">
<path d="M272.5 87C375.502 87 459 170.499 459 273.5C459 376.501 375.502 460 272.5 460C169.499 460 86.0005 376.501 86.0005 273.5C86.0005 170.499 169.499 87 272.5 87ZM273 102C178.008 102 101 179.007 101 274C101 368.993 178.008 446 273 446C367.993 446 445 368.993 445 274C445 179.007 367.993 102 273 102Z"/>
</mask>
<path d="M272.5 87V88C374.949 88 458 171.051 458 273.5H459H460C460 169.947 376.054 86 272.5 86V87ZM459 273.5H458C458 375.949 374.949 459 272.5 459V460V461C376.054 461 460 377.053 460 273.5H459ZM272.5 460V459C170.052 459 87.0005 375.949 87.0005 273.5H86.0005H85.0005C85.0005 377.053 168.947 461 272.5 461V460ZM86.0005 273.5H87.0005C87.0005 171.051 170.052 88 272.5 88V87V86C168.947 86 85.0005 169.947 85.0005 273.5H86.0005ZM273 102V101C177.455 101 100 178.455 100 274H101H102C102 179.559 178.56 103 273 103V102ZM101 274H100C100 369.545 177.455 447 273 447V446V445C178.56 445 102 368.441 102 274H101ZM273 446V447C368.546 447 446 369.545 446 274H445H444C444 368.441 367.441 445 273 445V446ZM445 274H446C446 178.455 368.546 101 273 101V102V103C367.441 103 444 179.559 444 274H445Z" fill="black" mask="url(#path-4-inside-1_74_128)"/>
</svg>
