<svg width="393" height="43" viewBox="0 0 393 43" fill="none" xmlns="http://www.w3.org/2000/svg">
<path d="M113.895 26.8689L114.122 27.0203L132.184 -0.000234349L225.932 -0.000242545L244.183 27.3083L244.183 39.321L113.895 39.3211L113.895 26.8689Z" fill="#D0FF00"/>
<rect x="-298.684" y="24.062" width="1014.13" height="18.7802" fill="#D0FF00"/>
<path d="M-298.684 33.4521H137.664L146.76 39.6144H715.743" stroke="#617700" stroke-width="0.293441"/>
<path d="M-298.097 31.1047H137.664L147.347 37.5604H714.863" stroke="#617700" stroke-width="0.293441"/>
<path d="M198.406 21.1279H230.685L238.021 30.5181H628.298L633.286 26.0577H715.45" stroke="#617700" stroke-width="0.293441"/>
<path d="M160.259 11.7377H134.436L124.165 26.7032H-278.143H-295.749" stroke="#617700" stroke-width="0.293441"/>
<rect x="187.402" y="30.0776" width="28.4638" height="3.22785" stroke="#506200" stroke-width="0.293441"/>
<circle cx="198.406" cy="21.1277" r="0.586883" fill="#506200"/>
<circle cx="160.259" cy="11.7379" r="0.586883" fill="#506200"/>
</svg>
