<svg width="619" height="46" viewBox="0 0 619 46" fill="none" xmlns="http://www.w3.org/2000/svg">
<rect x="-296.467" y="-1.83875" width="1198.41" height="20.1122" fill="#D0FF00"/>
<path d="M529.799 14.3047L501.494 45.3203H95.474L73.0726 11.1836L68.7406 13.0293V10.6445H529.799V14.3047Z" fill="#D0FF00"/>
<circle cx="153.977" cy="10.9913" r="1.04029" fill="#506200"/>
<circle cx="175.476" cy="14.4589" r="1.04029" fill="#506200"/>
<circle cx="448.724" cy="17.9266" r="1.04029" fill="#506200"/>
<rect x="92.0799" y="24.6886" width="44.7323" height="3.81438" stroke="#506200" stroke-width="0.346762"/>
<line x1="904.716" y1="17.9739" x2="449.071" y2="17.9739" stroke="#506200" stroke-width="0.346762"/>
<path d="M-296.467 7.87054H81.7785L91.5946 0.935303H834.67" stroke="#506200" stroke-width="0.346762"/>
<path d="M93.2937 42.1602L347.123 42.1602L389.428 13.7726L826.001 13.7726L903.329 13.7726" stroke="#506200" stroke-width="0.346762"/>
<line x1="-296.467" y1="14.6323" x2="175.129" y2="14.6323" stroke="#506200" stroke-width="0.346762"/>
<path d="M-296.814 10.9912H153.63" stroke="#506200" stroke-width="0.346762"/>
<path d="M90.5194 37.6921H346.202L387.486 9.52333H821.14L834.67 0.935303" stroke="#506200" stroke-width="0.346762"/>
</svg>
