<svg width="1728" height="68" viewBox="0 0 1728 68" fill="none" xmlns="http://www.w3.org/2000/svg">
<path d="M1684.24 23.2024C1683.66 23.2024 1683.16 22.9964 1682.74 22.5845C1682.32 22.1655 1682.11 21.6612 1682.11 21.0717C1682.11 20.4893 1682.32 19.9922 1682.74 19.5803C1683.16 19.1612 1683.66 18.9517 1684.24 18.9517C1684.82 18.9517 1685.32 19.1612 1685.74 19.5803C1686.16 19.9922 1686.37 20.4893 1686.37 21.0717C1686.37 21.4624 1686.27 21.821 1686.07 22.1477C1685.88 22.4673 1685.62 22.723 1685.31 22.9148C1684.99 23.1065 1684.63 23.2024 1684.24 23.2024ZM1692.74 23.2024C1692.15 23.2024 1691.65 22.9964 1691.23 22.5845C1690.81 22.1655 1690.61 21.6612 1690.61 21.0717C1690.61 20.4893 1690.81 19.9922 1691.23 19.5803C1691.65 19.1612 1692.15 18.9517 1692.74 18.9517C1693.32 18.9517 1693.82 19.1612 1694.24 19.5803C1694.66 19.9922 1694.87 20.4893 1694.87 21.0717C1694.87 21.4624 1694.77 21.821 1694.57 22.1477C1694.38 22.4673 1694.12 22.723 1693.8 22.9148C1693.48 23.1065 1693.13 23.2024 1692.74 23.2024ZM1701.23 23.2024C1700.65 23.2024 1700.15 22.9964 1699.73 22.5845C1699.31 22.1655 1699.1 21.6612 1699.1 21.0717C1699.1 20.4893 1699.31 19.9922 1699.73 19.5803C1700.15 19.1612 1700.65 18.9517 1701.23 18.9517C1701.81 18.9517 1702.32 19.1612 1702.73 19.5803C1703.15 19.9922 1703.36 20.4893 1703.36 21.0717C1703.36 21.4624 1703.26 21.821 1703.06 22.1477C1702.87 22.4673 1702.62 22.723 1702.3 22.9148C1701.98 23.1065 1701.62 23.2024 1701.23 23.2024Z" fill="#717171"/>
<rect width="1728" height="29" fill="#D0FF00"/>
<path d="M1191.4 23.2792L1150.59 67.9999H565.145L532.843 18.7772L526.597 21.4393V17.9999H1191.4V23.2792Z" fill="#D0FF00"/>
<circle cx="649.5" cy="18.5" r="1.5" fill="#506200"/>
<circle cx="680.5" cy="23.5" r="1.5" fill="#506200"/>
<circle cx="1074.5" cy="28.5" r="1.5" fill="#506200"/>
<rect x="560.25" y="38.2504" width="64.5" height="5.5" stroke="#506200" stroke-width="0.5"/>
<line x1="1732" y1="28.5686" x2="1075" y2="28.5686" stroke="#506200" stroke-width="0.5"/>
<path d="M0 14H545.397L559.55 4H1631" stroke="#506200" stroke-width="0.5"/>
<path d="M562 63.4433L928 63.4433L989 22.5109L1618.5 22.5108L1730 22.5108" stroke="#506200" stroke-width="0.5"/>
<line y1="23.75" x2="680" y2="23.75" stroke="#506200" stroke-width="0.5"/>
<path d="M-0.5 18.5H649" stroke="#506200" stroke-width="0.5"/>
<path d="M558 57H926.672L986.2 16.3832H1611.49L1631 4" stroke="#506200" stroke-width="0.5"/>
</svg>
